HIERARCHY
ROOT Hips
{
  OFFSET -31.5692 30.0904 122.763
  CHANNELS 6 Xposition Yposition Zposition Zrotation Xrotation Yrotation
  JOINT LeftUpLeg
  {
    OFFSET 8.64259 1.95398 -2.38835
    CHANNELS 3 Zrotation Xrotation Yrotation
    JOINT LeftLeg
    {
      OFFSET 43.7702 0 0
      CHANNELS 3 Zrotation Xrotation Yrotation
      JOINT LeftFoot
      {
        OFFSET 40.6238 0 0
        CHANNELS 3 Zrotation Xrotation Yrotation
        JOINT LeftToeBase
        {
          OFFSET 12.7242 0 0
          CHANNELS 3 Zrotation Xrotation Yrotation
          End Site
          {
            OFFSET 0 0 0
          }
        }
      }
    }
  }
  JOINT RightUpLeg
  {
    OFFSET -8.2249 1.95398 -2.59336
    CHANNELS 3 Zrotation Xrotation Yrotation
    JOINT RightLeg
    {
      OFFSET 43.5653 0 0
      CHANNELS 3 Zrotation Xrotation Yrotation
      JOINT RightFoot
      {
        OFFSET 40.6238 0 0
        CHANNELS 3 Zrotation Xrotation Yrotation
        JOINT RightToeBase
        {
          OFFSET 12.7242 0 0
          CHANNELS 3 Zrotation Xrotation Yrotation
          End Site
          {
            OFFSET 0 0 0
          }
        }
      }
    }
  }
  JOINT Spine
  {
    OFFSET 0.165834 0.87714 6.61349
    CHANNELS 3 Zrotation Xrotation Yrotation
    JOINT Spine1
    {
      OFFSET 7.38963 1.71661e-005 0
      CHANNELS 3 Zrotation Xrotation Yrotation
      JOINT Spine2
      {
        OFFSET 11.9445 1.14441e-005 0
        CHANNELS 3 Zrotation Xrotation Yrotation
        JOINT Spine3
        {
          OFFSET 14.7254 4.19617e-005 0
          CHANNELS 3 Zrotation Xrotation Yrotation
          JOINT Spine4
          {
            OFFSET 10.9679 0 0
            CHANNELS 3 Zrotation Xrotation Yrotation
            JOINT RightShoulder
            {
              OFFSET 2.46616 -1.6653 3.69651
              CHANNELS 3 Zrotation Xrotation Yrotation
              JOINT RightArm
              {
                OFFSET 13.0012 0 0
                CHANNELS 3 Zrotation Xrotation Yrotation
                JOINT RightForeArm
                {
                  OFFSET 28.7848 1.62311e-005 0
                  CHANNELS 3 Zrotation Xrotation Yrotation
                  JOINT RightHand
                  {
                    OFFSET 26.5688 1.62095e-005 0
                    CHANNELS 3 Zrotation Xrotation Yrotation
                    End Site
                    {
                      OFFSET 0 0 0
                    }
                  }
                }
              }
            }
            JOINT LeftShoulder
            {
              OFFSET 2.38034 -1.29275 -3.7523
              CHANNELS 3 Zrotation Xrotation Yrotation
              JOINT LeftArm
              {
                OFFSET 16.3182 6.07031e-005 0
                CHANNELS 3 Zrotation Xrotation Yrotation
                JOINT LeftForeArm
                {
                  OFFSET 27.0901 0 0
                  CHANNELS 3 Zrotation Xrotation Yrotation
                  JOINT LeftHand
                  {
                    OFFSET 24.5451 1.51738e-005 0
                    CHANNELS 3 Zrotation Xrotation Yrotation
                    End Site
                    {
                      OFFSET 0 0 0
                    }
                  }
                }
              }
            }
            JOINT Neck
            {
              OFFSET 5.0226 -0.0266342 0
              CHANNELS 3 Zrotation Xrotation Yrotation
              JOINT Head
              {
                OFFSET 6.69364 2.86102e-005 0
                CHANNELS 3 Zrotation Xrotation Yrotation
                End Site
                {
                  OFFSET 0 0 0
                }
              }
            }
          }
        }
      }
    }
  }
}
MOTION
Frames:	6
Frame Time:	0.0416667
41.4137 99.1448 21.8721 101.665 -60.1937 104.495 -172.85 -9.91745 88.5982 -20.3189 28.1226 0.821031 80.3188 13.5111 -0.131929 11.0133 -11.0759 3.93972 178.012 16.5233 92.5506 -16.0013 -6.47313 -1.09823 62.9089 -2.39679 -1.0303 25.6215 0.560828 3.96015 -0.796982 8.06157 -90.5066 10.7438 -1.82052 -0.839946 -0.926108 -1.85571 -0.758994 -23.4666 -1.48392 -1.34831 -3.45395 -1.48393 -1.34831 89.1233 -32.6221 -107.465 39.2579 -0.946643 7.38069 3.88933 -27.2769 -13.0253 -21.9406 -0.0483191 -10.2779 -88.1126 -47.1629 81.0237 -20.2646 9.26859 -31.2896 -3.15089 10.17 -0.775854 10.1351 -1.76205 -20.8159 4.94132 -0.889141 -11.0606 -3.56751 1.14779 2.00976 
45.1041 96.8949 31.0288 99.7082 -56.2178 102.395 -169.071 -16.6109 93.4551 -18.5375 34.2715 -0.0115507 83.6212 16.4329 -0.411923 12.7904 -10.0946 4.05727 177.824 18.5561 95.0239 -6.27803 -3.64805 1.59719 62.4281 -2.02897 1.31797 29.9405 -0.83412 1.56512 -0.857847 8.07127 -90.5318 10.7236 -1.95344 -0.877987 -0.946111 -1.99019 -0.791138 -23.4874 -1.59928 -1.42455 -3.47476 -1.59927 -1.42456 89.3551 -33.6337 -106.651 39.1965 -0.363332 8.74823 4.99506 -27.0701 -10.6983 -19.6759 -0.110121 -10.3893 -88.064 -46.9585 81.0558 -22.0479 9.45101 -33.3617 -1.11395 15.4509 -3.92929 9.87491 -2.04506 -24.4038 5.89448 -1.42908 -13.3899 -3.68125 1.14799 2.4412 
50.4817 95.8576 41.0032 99.8485 -52.4948 102.793 -167.217 -22.3445 96.7287 -20.9769 37.4011 2.52571 78.1524 13.6494 2.7014 20.0435 -5.11414 2.01675 179.007 23.0075 96.8129 -22.5437 -10.1073 -0.0666045 59.2075 1.79567 -0.887868 22.5792 1.78165 4.28844 -1.00698 8.0415 -90.7008 10.7787 -2.32844 -1.17796 -0.890598 -2.37804 -1.07431 -23.4332 -1.8668 -1.82337 -3.42052 -1.86681 -1.82337 90.1138 -34.4127 -104.962 38.0097 -0.17687 7.11699 6.10462 -27.9152 -8.06016 -19.6143 -0.578464 -7.24727 -88.1844 -48.3151 81.1311 -25.2481 8.8071 -29.945 -0.629625 18.4254 -2.73879 11.3148 -2.16385 -23.2849 6.50888 -0.979263 -10.7692 -4.29929 1.14529 0.682856 
56.3227 96.4031 50.397 100.228 -49.2297 104.095 -169.002 -14.3264 98.2407 -42.8743 37.4863 6.54395 62.9153 2.14096 1.73278 23.7954 -1.31945 -2.91012 177.759 20.5984 98.4272 -33.0473 -7.13628 0.697656 63.2378 -0.821822 -1.28531 22.084 2.39377 2.8115 -0.897687 7.96071 -91.0297 10.9307 -2.26345 -1.83501 -0.739428 -2.342 -1.73362 -23.273 -1.60749 -2.43028 -3.26035 -1.60751 -2.43028 90.1473 -32.8418 -105.433 38.1152 -0.717903 5.59286 5.61921 -26.8625 -9.17429 -19.7256 -0.213765 -9.57699 -88.697 -48.6338 80.4111 -27.5521 11.8114 -24.4147 -3.77098 15.305 0.183538 6.75292 -0.698688 -18.0595 6.60922 -0.782636 -7.7336 -4.72147 0.738572 1.1271 
61.0129 97.5695 57.8555 101.818 -46.5471 105.369 -171.492 0.998095 99.0097 -62.1473 23.6711 5.7451 56.9931 -2.87457 -2.50152 17.0796 -7.36349 3.50386 177.343 12.9897 99.3574 -33.5019 -5.58438 0.848368 67.9482 -4.17979 -3.15153 25.0506 1.20495 2.25603 -0.455367 8.18395 -91.1087 10.4867 -1.41568 -2.07697 -1.18499 -1.5057 -2.01268 -23.7091 -0.726215 -2.40624 -3.69647 -0.726212 -2.40624 89.5597 -32.5002 -106.678 35.4821 -2.38191 0.207484 4.94345 -28.0177 -11.7603 -22.0298 -0.0863688 -10.2161 -89.4098 -49.9064 79.5911 -26.4728 11.6674 -18.9443 -4.57662 22.1754 -0.00825966 1.23146 0.423326 -18.116 7.81077 -1.25974 -6.42326 -3.45099 0.0976396 0.112479 
65.6214 99.1302 63.8251 101.136 -45.5224 101.972 -173.545 13.9298 92.8002 -61.1639 9.98978 3.2126 69.8886 5.64632 2.24611 15.2194 -8.94686 4.50303 176.371 5.93403 97.0458 -29.5925 -5.07724 0.0728337 70.6888 -5.65978 -2.76022 25.6827 1.05726 1.68268 0.0962991 8.2301 -90.7457 10.4119 -0.149784 -1.4681 -1.25984 -0.214251 -1.46009 -23.7884 0.298309 -1.44526 -3.77575 0.298306 -1.44525 88.9111 -32.0709 -108.076 31.6895 -2.83049 -6.96679 4.26401 -28.898 -12.72 -23.531 -0.172533 -9.63375 -89.0772 -50.4554 80.1994 -25.6717 10.1715 -10.6156 -3.87815 15.8858 -0.00611293 3.21574 -0.0319813 -16.4514 6.92793 -2.00937 -5.90195 -1.84396 -0.806641 -0.706903 
